<svg data-v-fde0c5aa="" xmlns="http://www.w3.org/2000/svg" viewBox="0 0 300 300" class="iconLeft"><!----><defs data-v-fde0c5aa=""><!----></defs><rect data-v-fde0c5aa="" fill="#003FBA" x="0" y="0" width="300px" height="300px" class="logo-background-square"></rect><defs data-v-fde0c5aa=""><!----></defs><g data-v-fde0c5aa="" id="041b0e48-97fe-4774-923b-eea51d20a6c6" fill="#ffffff" transform="matrix(1.2821040451631656,0,0,1.2821040451631656,100.0190588096086,136.01865511849954)"><path d="M6.10 10.38C6.10 10.77 6.10 11.14 6.08 11.52C6.05 12.28 6.01 12.95 5.96 13.53L8.40 13.53C8.38 13.30 8.36 12.97 8.33 12.53C8.29 11.82 8.27 11.10 8.27 10.38L8.27 7.04C8.27 6.66 8.27 6.27 8.29 5.89C8.31 5.16 8.34 4.49 8.40 3.87L5.96 3.87C5.99 4.11 6.01 4.45 6.03 4.88C6.08 5.69 6.10 6.41 6.10 7.04L6.10 8.75C5.84 8.84 5.54 8.91 5.17 8.97C4.75 9.03 4.39 9.07 4.10 9.07C3.09 9.07 2.65 8.35 2.65 6.94L2.65 6.50C2.65 5.62 2.67 4.96 2.71 4.51C2.75 4.07 2.77 3.84 2.78 3.84L0.50 3.84L0.55 4.29L0.56 4.45C0.60 5.09 0.62 5.78 0.62 6.50L0.62 7.50C0.62 8.20 0.81 8.85 1.22 9.32C1.69 9.88 2.39 10.16 3.35 10.16C3.76 10.16 4.21 10.14 4.70 10.07C5.31 10.00 5.78 9.90 6.10 9.78ZM16.76 12.74L16.55 12.79C16.50 12.80 16.45 12.81 16.40 12.81L16.35 12.81C16.18 12.80 16.06 12.71 15.99 12.50C15.94 12.36 15.91 12.14 15.91 11.87L15.91 9.69C15.91 8.86 15.77 8.27 15.43 7.87C15.06 7.44 14.45 7.22 13.50 7.22C13.06 7.22 12.59 7.29 12.07 7.44C11.51 7.60 11.04 7.83 10.66 8.11L10.86 8.84C11.14 8.62 11.42 8.45 11.71 8.32C12.12 8.12 12.51 8.02 12.86 8.02C13.26 8.02 13.54 8.16 13.70 8.43C13.82 8.64 13.89 8.97 13.89 9.42L13.89 10.11L11.48 10.90C10.86 11.10 10.51 11.27 10.30 11.47C10.09 11.69 10.02 11.94 10.02 12.36C10.02 12.84 10.19 13.20 10.55 13.42C10.87 13.64 11.34 13.74 11.96 13.74C12.33 13.74 12.73 13.67 13.13 13.53C13.49 13.41 13.80 13.24 14.06 13.05C14.25 13.45 14.66 13.72 15.30 13.72C15.66 13.72 15.99 13.68 16.29 13.59C16.55 13.52 16.76 13.44 16.89 13.35ZM12.64 12.82C12.09 12.82 11.87 12.67 11.87 12.14C11.87 11.91 11.98 11.73 12.21 11.58C12.40 11.46 12.76 11.32 13.12 11.19L13.89 10.90L13.89 12.38C13.76 12.50 13.56 12.61 13.28 12.70C13.02 12.78 12.80 12.82 12.64 12.82ZM22.06 13.00C22.79 12.78 23.42 12.36 23.89 11.77C24.39 11.14 24.65 10.41 24.65 9.58C24.65 8.66 24.28 7.77 23.65 7.11C23.00 6.43 22.09 6.03 21.11 6.03C20.16 6.03 19.27 6.41 18.62 7.05C17.95 7.70 17.56 8.60 17.56 9.58C17.56 10.53 17.93 11.42 18.58 12.07C19.23 12.73 20.13 13.13 21.11 13.13C21.43 13.13 21.75 13.08 22.06 13.00ZM21.96 6.45C22.62 6.64 23.23 7.02 23.66 7.55C24.11 8.11 24.37 8.81 24.37 9.58C24.37 10.48 24.02 11.29 23.41 11.90C22.81 12.51 21.99 12.86 21.11 12.86C20.21 12.86 19.39 12.49 18.79 11.87C18.20 11.26 17.86 10.45 17.86 9.58C17.86 8.72 18.20 7.91 18.78 7.30C19.38 6.69 20.19 6.32 21.11 6.32C21.42 6.32 21.71 6.36 21.96 6.45ZM23.05 7.40C22.54 6.92 21.85 6.64 21.11 6.64C20.36 6.64 19.67 6.92 19.13 7.40ZM24.03 9.58C24.03 8.88 23.79 8.22 23.29 7.61L19.47 11.46L23.37 11.46C23.81 10.91 24.03 10.28 24.03 9.58ZM22.73 7.72L18.84 7.72C18.40 8.27 18.18 8.89 18.18 9.58C18.18 10.34 18.43 11.03 18.91 11.56ZM19.14 11.78C19.70 12.25 20.38 12.52 21.11 12.52C21.84 12.52 22.53 12.25 23.08 11.78ZM26.56 7.44C26.56 7.44 26.56 7.50 26.54 7.62C26.51 7.83 26.45 8.21 26.35 8.74L26.05 10.35C25.91 10.99 25.79 11.56 25.67 12.08C25.53 12.66 25.40 13.15 25.29 13.53L26.57 13.53C26.60 13.23 26.63 12.94 26.66 12.68C26.78 11.84 26.91 11.07 27.04 10.37L27.30 9.09L27.89 10.59L28.20 11.33C28.29 11.58 28.38 11.81 28.47 12.03C28.69 12.59 28.90 13.10 29.08 13.53L30.09 13.53L31.95 9.07C32.07 9.86 32.18 10.47 32.26 10.91C32.33 11.32 32.39 11.71 32.44 12.08C32.52 12.78 32.56 13.27 32.57 13.53L35.05 13.53C34.99 13.34 34.90 13.03 34.79 12.63C34.60 11.98 34.42 11.23 34.24 10.39L34.17 10.07L33.62 7.44L31.52 7.44C31.43 7.67 31.38 7.81 31.37 7.85C31.33 7.95 31.25 8.16 31.13 8.47L30.11 10.92L28.77 7.44ZM39.67 13.76C40.33 13.76 40.95 13.65 41.50 13.44C42.11 13.21 42.59 12.86 42.94 12.39C43.34 11.87 43.53 11.23 43.53 10.45C43.53 9.37 43.10 8.55 42.35 7.99C41.66 7.48 40.70 7.22 39.70 7.22C38.72 7.22 37.79 7.46 37.09 7.97C36.33 8.52 35.87 9.36 35.87 10.51C35.87 11.59 36.31 12.40 37.04 12.96C37.74 13.49 38.67 13.75 39.67 13.76ZM38.00 10.46C38.00 9.68 38.19 9.07 38.52 8.67C38.84 8.28 39.26 8.09 39.69 8.09C40.13 8.09 40.56 8.28 40.87 8.64C41.23 9.07 41.41 9.69 41.41 10.50C41.41 11.26 41.24 11.86 40.89 12.29C40.57 12.68 40.14 12.89 39.72 12.89C39.27 12.89 38.86 12.71 38.54 12.32C38.18 11.88 38.00 11.26 38.00 10.46ZM49.09 13.00C49.82 12.78 50.46 12.36 50.92 11.77C51.43 11.14 51.68 10.41 51.68 9.58C51.68 8.66 51.32 7.77 50.68 7.11C50.04 6.43 49.13 6.03 48.14 6.03C47.19 6.03 46.30 6.41 45.65 7.05C44.99 7.70 44.60 8.60 44.60 9.58C44.60 10.53 44.97 11.42 45.61 12.07C46.26 12.73 47.16 13.13 48.14 13.13C48.47 13.13 48.78 13.08 49.09 13.00ZM48.99 6.45C49.66 6.64 50.27 7.02 50.69 7.55C51.14 8.11 51.40 8.81 51.40 9.58C51.40 10.48 51.05 11.29 50.44 11.90C49.85 12.51 49.03 12.86 48.14 12.86C47.24 12.86 46.42 12.49 45.83 11.87C45.23 11.26 44.89 10.45 44.89 9.58C44.89 8.72 45.23 7.91 45.81 7.30C46.41 6.69 47.22 6.32 48.14 6.32C48.45 6.32 48.74 6.36 48.99 6.45ZM50.09 7.40C49.57 6.92 48.89 6.64 48.14 6.64C47.39 6.64 46.70 6.92 46.16 7.40ZM51.06 9.58C51.06 8.88 50.82 8.22 50.32 7.61L46.50 11.46L50.41 11.46C50.85 10.91 51.06 10.28 51.06 9.58ZM49.76 7.72L45.87 7.72C45.43 8.27 45.21 8.89 45.21 9.58C45.21 10.34 45.46 11.03 45.94 11.56ZM46.18 11.78C46.73 12.25 47.41 12.52 48.14 12.52C48.87 12.52 49.56 12.25 50.11 11.78ZM56.83 13.31L57.02 13.38C57.13 13.42 57.32 13.47 57.57 13.53C58.19 13.68 58.86 13.76 59.55 13.76C61.17 13.76 62.59 13.34 63.60 12.50C64.66 11.62 65.25 10.28 65.25 8.50C65.25 7.43 64.97 6.51 64.43 5.75C63.93 5.05 63.23 4.52 62.34 4.16C61.50 3.81 60.57 3.65 59.54 3.65C59.19 3.65 58.84 3.67 58.52 3.70C57.93 3.79 57.44 3.89 57.08 4.03L57.30 5.19C57.47 5.06 57.67 4.95 57.89 4.85C58.40 4.63 58.93 4.52 59.45 4.52C60.21 4.52 61.01 4.79 61.63 5.35C62.30 5.94 62.76 6.83 62.87 7.99C62.31 7.99 61.68 7.98 61.01 7.97C60.05 7.96 59.33 7.94 58.84 7.91L58.84 8.91L59.77 8.88C60.42 8.86 61.47 8.84 62.92 8.83C62.90 9.95 62.57 10.96 62.01 11.70C61.43 12.45 60.59 12.89 59.58 12.89C59.26 12.89 58.94 12.85 58.65 12.78C58.07 12.64 57.53 12.44 57.05 12.17ZM71.36 10.57C71.36 10.86 71.36 11.07 71.35 11.22C71.34 11.57 71.33 12.00 71.30 12.51C71.28 12.92 71.26 13.21 71.24 13.38L71.23 13.53L73.50 13.53C73.48 13.38 73.46 13.17 73.43 12.88C73.39 12.41 73.37 11.95 73.37 11.49L73.37 9.79C73.37 9.33 73.39 8.80 73.44 8.20L73.49 7.65L73.50 7.44L68.62 7.44C68.62 7.83 68.61 8.24 68.57 8.67C68.54 9.15 68.47 9.62 68.39 10.06C68.17 11.17 67.82 11.98 67.36 12.52C67.02 12.91 66.65 13.07 66.37 13.08C66.29 13.08 66.22 13.08 66.15 13.06C66.03 13.04 65.94 13.02 65.88 12.99L65.82 12.96L65.89 13.63C65.93 13.65 66.00 13.67 66.11 13.70C66.25 13.73 66.42 13.76 66.63 13.76C66.98 13.76 67.31 13.66 67.63 13.45C68.03 13.20 68.38 12.79 68.66 12.23C69.02 11.52 69.27 10.63 69.43 9.54C69.46 9.36 69.48 9.16 69.50 8.94L69.52 8.44C69.73 8.35 70.04 8.31 70.45 8.31L70.53 8.31C70.84 8.31 71.11 8.34 71.34 8.40ZM78.90 7.22C78.25 7.22 77.64 7.32 77.08 7.53C76.46 7.77 75.98 8.12 75.64 8.57C75.24 9.10 75.05 9.75 75.05 10.51C75.05 11.59 75.46 12.42 76.17 12.97C76.82 13.50 77.73 13.76 78.74 13.76C79.14 13.76 79.55 13.68 79.98 13.52C80.37 13.38 80.68 13.22 80.82 13.06L80.68 12.34C80.49 12.47 80.27 12.58 80.02 12.67C79.63 12.82 79.26 12.89 78.90 12.89C78.45 12.89 78.03 12.69 77.71 12.32C77.38 11.92 77.17 11.33 77.16 10.58L77.16 10.43C77.16 10.39 77.17 10.35 77.17 10.28L80.49 10.28L80.94 10.28C81.05 10.28 81.19 10.28 81.38 10.28L81.77 10.28C81.84 10.29 81.94 10.29 82.05 10.29L82.20 9.54L82.05 9.54C81.99 9.55 81.89 9.55 81.75 9.55L81.40 9.55C81.32 9.55 81.22 9.55 81.11 9.55C81.39 9.44 81.54 9.21 81.54 8.72C81.54 8.38 81.40 8.08 81.09 7.83C80.84 7.63 80.49 7.47 80.05 7.36C79.68 7.27 79.30 7.22 78.90 7.22ZM78.87 8.09C79.51 8.09 79.91 8.42 79.91 8.97C79.91 9.18 79.82 9.33 79.65 9.42C79.52 9.49 79.35 9.53 79.14 9.53C78.72 9.53 78.41 9.53 78.20 9.52L77.25 9.52C77.36 9.05 77.60 8.68 77.90 8.44C78.18 8.21 78.53 8.09 78.87 8.09ZM83.50 10.91C83.50 11.30 83.50 11.65 83.48 11.96C83.45 12.60 83.41 13.13 83.36 13.53L85.65 13.53C85.63 13.36 85.60 13.11 85.58 12.80C85.54 12.23 85.52 11.61 85.52 10.91L85.52 9.94C85.52 9.54 85.53 9.18 85.54 8.86C85.56 8.24 85.60 7.73 85.65 7.33L83.36 7.51C83.38 7.68 83.41 7.91 83.43 8.20C83.48 8.79 83.50 9.43 83.50 10.09ZM90.87 13.41C90.76 13.38 90.63 13.31 90.48 13.17C90.15 12.87 89.78 12.36 89.38 11.64C89.13 11.16 88.74 10.78 88.21 10.49C87.82 10.28 87.39 10.14 86.93 10.08L88.21 8.77C88.42 8.55 88.58 8.40 88.68 8.30C89.05 7.94 89.33 7.68 89.52 7.50L87.75 7.35C87.60 7.61 87.51 7.76 87.49 7.80C87.26 8.16 87.07 8.43 86.92 8.62L85.76 9.89L86.02 10.58C86.16 10.59 86.31 10.64 86.46 10.72C86.80 10.91 87.08 11.23 87.28 11.68C87.53 12.32 87.86 12.82 88.27 13.18C88.66 13.54 89.12 13.73 89.59 13.73C89.80 13.73 89.99 13.72 90.14 13.71C90.45 13.68 90.68 13.64 90.84 13.59ZM95.39 13.53L95.33 12.57C95.28 11.89 95.26 11.21 95.26 10.52L95.26 8.28C95.67 8.30 95.98 8.33 96.21 8.35C96.80 8.41 97.27 8.47 97.61 8.54L97.61 7.44L90.92 7.44L90.92 8.54C91.02 8.52 91.18 8.50 91.39 8.47L91.61 8.44C92.18 8.37 92.72 8.32 93.25 8.29L93.25 10.52C93.25 10.89 93.24 11.25 93.23 11.61C93.19 12.40 93.16 13.04 93.12 13.53ZM105.48 8.06C104.97 7.50 104.21 7.22 103.21 7.22C102.51 7.22 101.94 7.38 101.50 7.69C101.30 7.84 101.12 8.02 100.98 8.25C101.00 7.85 101.02 7.55 101.05 7.35L98.77 7.53L98.83 8.32C98.88 8.99 98.90 9.66 98.90 10.33L98.90 15.54C98.90 15.93 98.90 16.28 98.88 16.59C98.85 17.20 98.82 17.72 98.77 18.16L101.05 18.16C101.03 17.98 101.00 17.74 100.98 17.42C100.94 16.86 100.92 16.23 100.92 15.54L100.92 12.60C101.07 12.87 101.26 13.09 101.50 13.27C101.94 13.59 102.51 13.76 103.21 13.76C104.20 13.76 104.95 13.43 105.48 12.78C105.95 12.19 106.19 11.38 106.19 10.35C106.19 9.35 105.95 8.59 105.48 8.06ZM103.94 11.55C103.81 12.01 103.63 12.35 103.40 12.58C103.17 12.80 102.92 12.90 102.63 12.90C102.54 12.90 102.46 12.89 102.38 12.87C102.07 12.81 101.72 12.63 101.44 12.29C101.09 11.86 100.92 11.25 100.92 10.47L100.92 10.42C100.92 9.58 101.12 8.94 101.51 8.51C101.82 8.18 102.22 8.04 102.61 8.04C103.05 8.04 103.42 8.23 103.68 8.61C103.96 9.02 104.10 9.60 104.10 10.35C104.10 10.76 104.04 11.17 103.94 11.55ZM114.94 10.37C114.94 10.00 114.95 9.63 114.96 9.27C114.98 8.53 115.02 7.88 115.06 7.33L112.96 7.33C112.75 7.69 112.41 8.23 111.94 8.95C111.58 9.50 111.22 10.04 110.84 10.59C110.45 11.13 110.19 11.50 110.03 11.70L110.03 10.35C110.03 9.98 110.03 9.63 110.05 9.27C110.07 8.62 110.10 7.97 110.15 7.34L107.90 7.34L107.98 9.27C107.99 9.74 108.00 10.11 108.00 10.35L108.00 10.50C108.00 10.86 107.99 11.21 107.98 11.57C107.95 12.31 107.91 12.96 107.86 13.54L110.03 13.54L110.16 13.32C110.31 13.07 110.61 12.61 111.04 11.96L111.66 11.03C112.11 10.33 112.53 9.71 112.92 9.17L112.92 10.51C112.92 10.88 112.91 11.24 112.90 11.60C112.86 12.42 112.83 13.06 112.79 13.53L115.05 13.53L115.00 12.57C114.96 11.79 114.94 11.11 114.94 10.51ZM117.41 10.91C117.41 11.30 117.40 11.65 117.39 11.96C117.36 12.60 117.32 13.13 117.27 13.53L119.56 13.53C119.54 13.36 119.51 13.11 119.49 12.80C119.45 12.23 119.43 11.61 119.43 10.91L119.43 9.94C119.43 9.54 119.43 9.18 119.45 8.86C119.47 8.24 119.50 7.73 119.56 7.33L117.27 7.51C117.29 7.68 117.32 7.91 117.34 8.20C117.39 8.79 117.41 9.43 117.41 10.09ZM124.78 13.41C124.66 13.38 124.54 13.31 124.39 13.17C124.05 12.87 123.69 12.36 123.29 11.64C123.04 11.16 122.65 10.78 122.12 10.49C121.72 10.28 121.30 10.14 120.83 10.08L122.12 8.77C122.33 8.55 122.49 8.40 122.59 8.30C122.96 7.94 123.24 7.68 123.42 7.50L121.65 7.35C121.51 7.61 121.42 7.76 121.39 7.80C121.17 8.16 120.98 8.43 120.83 8.62L119.67 9.89L119.92 10.58C120.07 10.59 120.22 10.64 120.37 10.72C120.71 10.91 120.99 11.23 121.19 11.68C121.44 12.32 121.77 12.82 122.18 13.18C122.57 13.54 123.03 13.73 123.50 13.73C123.71 13.73 123.89 13.72 124.05 13.71C124.36 13.68 124.59 13.64 124.75 13.59Z"></path></g><defs data-v-fde0c5aa=""><!----></defs><g data-v-fde0c5aa="" id="dc8773e6-dca8-490a-b83f-4f338911655e" stroke="none" fill="#34A1E5" transform="matrix(1.4893784635059428,0,0,1.4893784635059428,40,126.16994458390492)"><path d="M16 19.586l7.496-12.954H8.504zM7.496 12.414L0 25.368h14.992zM24.504 12.414l-7.496 12.954H32z"></path></g><!----></svg>